<svg width="256" height="256" viewBox="0 0 256 256" fill="none" xmlns="http://www.w3.org/2000/svg">
<path d="M132.076 215.36C138.11 205.022 171.064 147.762 191.022 112.941C197.211 102.148 209.898 80.1073 219.18 63.9746C228.515 47.842 236.148 34.4927 236.148 34.3223C236.148 33.7543 180.914 33.9815 173.746 34.5495C161.265 35.6288 150.177 38.8099 141.359 43.9792C131.56 49.6597 121.555 58.8054 114.284 68.6326C112.582 70.9617 109.281 75.3357 106.96 78.2895C101.391 85.447 101.03 86.0718 101.03 88.8553C101.03 91.1275 101.391 91.6956 107.425 99.137C117.584 111.691 123.721 118.848 125.217 119.871C127.022 121.234 129.961 121.177 131.612 119.757C133.675 117.94 152.756 93.7973 153.839 91.6387C155.541 88.06 154.87 86.6399 147.032 77.1534C143.164 72.4954 139.708 68.6326 139.347 68.6326C138.677 68.6326 130.426 73.0066 130.426 73.3475C130.426 73.4611 131.715 75.0516 133.314 76.8694C141.101 86.0718 142.803 88.4009 142.803 89.7642C142.803 91.2411 140.018 94.9903 132.798 103.17C127.486 109.135 128.053 109.362 118.667 97.3761C115.109 92.8317 113.923 90.9571 113.923 89.7074C113.923 88.4577 114.954 86.9807 118.667 82.7203C126.3 74.1428 132.127 70.0528 143.937 64.9403C157.088 59.3166 164.721 57.8965 184.009 57.442C196.025 57.158 198.088 57.2148 197.727 57.8965C197.469 58.3509 196.231 60.5095 194.942 62.6681C193.704 64.8835 183.287 82.8908 171.786 102.716C133.21 169.405 128.208 177.812 127.589 177.017C127.228 176.619 124.237 171.564 120.885 165.77C117.533 159.975 109.642 146.456 103.35 135.663C97.0586 124.87 88.6008 110.328 84.5267 103.284C80.4525 96.24 72.8715 83.1748 67.6627 74.1427C62.5055 65.1675 58.2251 57.7261 58.2251 57.5556C58.2251 57.0444 76.4299 57.2716 83.4952 57.8397C94.1706 58.7486 102.989 60.6799 110.467 63.8042C112.375 64.5995 114.232 65.2243 114.593 65.2243C115.006 65.2243 117.997 62.3273 121.297 58.8054L127.28 52.3864L122.587 49.0917C112.375 41.8206 100.875 37.333 86.8474 35.0608C80.5556 34.0951 19.34 33.6975 19.8557 34.6632C20.5778 35.9697 38.1637 66.6445 50.2315 87.6624C70.8602 123.506 77.5129 135.095 99.9466 174.006C112.066 194.967 123.205 214.281 124.753 217.065C126.3 219.791 127.692 222.007 127.898 222.007C128.053 222.007 129.961 218.996 132.076 215.36Z" fill="url(#paint0_angular_37_396)"/>
<defs>
<radialGradient id="paint0_angular_37_396" cx="0" cy="0" r="1" gradientUnits="userSpaceOnUse" gradientTransform="translate(128 128) rotate(90) scale(94.0067 108.147)">
<stop offset="0.501849" stop-color="#55BEDB"/>
<stop offset="1" stop-color="#0A3988"/>
</radialGradient>
</defs>
</svg>
