<svg xmlns="http://www.w3.org/2000/svg" width="22" height="22" viewBox="0 0 22 22" fill="none">
<circle cx="11" cy="11" r="10.45" fill="#91FCCE" stroke="#555555" stroke-width="1.1"/>
<path d="M9.97652 15.7006C9.62652 15.7006 9.28752 15.5616 9.03552 15.3096L6.36752 12.6426C6.12753 12.3904 5.99568 12.0543 6.00011 11.7062C6.00454 11.358 6.1449 11.0254 6.39122 10.7793C6.63754 10.5333 6.9703 10.3933 7.31845 10.3892C7.66659 10.3852 8.00253 10.5174 8.25452 10.7576L9.67052 12.1746L13.1455 6.71961C13.2276 6.56133 13.3407 6.42112 13.4779 6.30727C13.6152 6.19342 13.7739 6.10824 13.9446 6.05677C14.1153 6.0053 14.2946 5.98859 14.4719 6.00761C14.6493 6.02664 14.8209 6.08102 14.9769 6.16754C15.1328 6.25407 15.2698 6.37097 15.3798 6.51135C15.4897 6.65173 15.5704 6.81273 15.6171 6.98483C15.6638 7.15694 15.6755 7.33666 15.6515 7.51336C15.6275 7.69006 15.5684 7.86017 15.4775 8.01361L11.1435 15.0136C11.0434 15.194 10.9028 15.3487 10.7328 15.4655C10.5627 15.5823 10.3678 15.658 10.1635 15.6866L9.97652 15.7006Z" fill="#555555"/>
</svg>